<svg xmlns="http://www.w3.org/2000/svg" viewBox="0 0 100 100" width="100" height="100">
  <!-- Corpo del gattino blu di prussia -->
  <ellipse cx="50" cy="60" rx="25" ry="30" fill="#5B7FA8" stroke="#3A5F7A" stroke-width="1.5"/>
  
  <!-- Testa -->
  <circle cx="50" cy="35" r="22" fill="#5B7FA8" stroke="#3A5F7A" stroke-width="1.5"/>
  
  <!-- Orecchie -->
  <polygon points="35,20 42,35 28,35" fill="#4A6F94" stroke="#3A5F7A" stroke-width="1"/>
  <polygon points="65,20 72,35 58,35" fill="#4A6F94" stroke="#3A5F7A" stroke-width="1"/>
  
  <!-- Occhi -->
  <circle cx="44" cy="32" r="3.5" fill="#1A1A1A"/>
  <circle cx="56" cy="32" r="3.5" fill="#1A1A1A"/>
  <circle cx="45" cy="31" r="1.5" fill="#FFFFFF"/>
  <circle cx="57" cy="31" r="1.5" fill="#FFFFFF"/>
  
  <!-- Naso -->
  <polygon points="50,38 47,43 53,43" fill="#FFB6C1"/>
  
  <!-- Bocca -->
  <path d="M 50 43 Q 45 47 43 46" stroke="#1A1A1A" stroke-width="1" fill="none"/>
  <path d="M 50 43 Q 55 47 57 46" stroke="#1A1A1A" stroke-width="1" fill="none"/>
  
  <!-- Zampe anteriori -->
  <ellipse cx="40" cy="75" rx="6" ry="12" fill="#4A6F94"/>
  <ellipse cx="60" cy="75" rx="6" ry="12" fill="#4A6F94"/>
  
  <!-- Pancia -->
  <ellipse cx="50" cy="65" rx="12" ry="18" fill="#6B8FA8"/>
  
  <!-- Coda -->
  <path d="M 70 65 Q 85 55 88 70 Q 85 80 75 75" fill="#5B7FA8" stroke="#3A5F7A" stroke-width="1"/>
</svg>